<svg xmlns="http://www.w3.org/2000/svg" viewBox="0 0 512 170">
<defs>
<linearGradient id="mondsh" x1="0" y1="0" x2="0" y2="1"><stop offset="0" stop-color="#FAFAFD"/><stop offset="1" stop-color="#E4E6EF"/></linearGradient>
<linearGradient id="mondenv" x1="0" y1="0" x2="1" y2="0"><stop offset="0" stop-color="#9A6BFF"/><stop offset="1" stop-color="#7343E0"/></linearGradient>
</defs>
<path d="M0,170 L0,0 L44,0 L95,64 L146,0 L190,0 L190,166 L178,170 L142,170 L95,122 L48,170 L12,170 L0,166 Z" fill="url(#mondsh)"/>
<path d="M208,0 L350,0 L368,42 L208,42 Z" fill="url(#mondsh)"/>
<path d="M214,128 L362,128 L362,170 L214,170 Z" fill="url(#mondsh)"/>
<path d="M208,54 L368,54 L288,121 Z" fill="url(#mondenv)"/>
<path d="M242,54 L334,54 L288,97 Z" fill="#5228C8" fill-opacity="0.9"/>
<path d="M390,170 L390,22 L412,0 L438,0 C478,0 512,30 512,78 C512,126 478,156 438,156 L438,170 Z M438,44 C462,44 484,57 484,78 C484,99 462,112 438,112 Z" fill="url(#mondsh)" fill-rule="evenodd"/>
</svg>