<svg xmlns="http://www.w3.org/2000/svg" viewBox="0 0 6043 1444">
<rect width="6043" height="1444" fill="#0A0C18"/>
<g transform="translate(922 435.4) scale(2.93912)">

<defs>
<linearGradient id="lkdsh" x1="0" y1="0" x2="0" y2="1"><stop offset="0" stop-color="#FAFAFD"/><stop offset="1" stop-color="#E4E6EF"/></linearGradient>
<linearGradient id="lkdenv" x1="0" y1="0" x2="1" y2="0"><stop offset="0" stop-color="#9A6BFF"/><stop offset="1" stop-color="#7343E0"/></linearGradient>
</defs>
<path d="M0,170 L0,0 L44,0 L95,64 L146,0 L190,0 L190,166 L178,170 L142,170 L95,122 L48,170 L12,170 L0,166 Z" fill="url(#lkdsh)"/>
<path d="M208,0 L350,0 L368,42 L208,42 Z" fill="url(#lkdsh)"/>
<path d="M214,128 L362,128 L362,170 L214,170 Z" fill="url(#lkdsh)"/>
<path d="M208,54 L368,54 L288,121 Z" fill="url(#lkdenv)"/>
<path d="M242,54 L334,54 L288,97 Z" fill="#5228C8" fill-opacity="0.9"/>
<path d="M390,170 L390,22 L412,0 L438,0 C478,0 512,30 512,78 C512,126 478,156 438,156 L438,170 Z M438,44 C462,44 484,57 484,78 C484,99 462,112 438,112 Z" fill="url(#lkdsh)" fill-rule="evenodd"/>
<linearGradient id="lkdmail" x1="992" y1="0" x2="1413" y2="0" gradientUnits="userSpaceOnUse"><stop offset="0" stop-color="#B48CFF"/><stop offset="1" stop-color="#7E52F0"/></linearGradient>
<path d="M732.857 19.985000000000014V149.0H696.989V77.813L672.65 149.0H642.638L618.116 77.264V149.0H582.248V19.985000000000014H625.619L658.01 103.799L689.669 19.985000000000014Z M854.892 104.89699999999999H786.999Q787.548 113.315 791.6655000000001 117.4325Q795.783 121.55 802.188 121.55Q811.155 121.55 814.998 113.49799999999999H853.245Q850.866 124.112 844.0035 132.43849999999998Q837.1410000000001 140.765 826.71 145.523Q816.279 150.281 803.652 150.281Q788.463 150.281 776.6595 143.876Q764.856 137.471 758.1765 125.576Q751.4970000000001 113.681 751.4970000000001 97.577Q751.4970000000001 81.473 758.085 69.6695Q764.673 57.866 776.4765 51.461Q788.28 45.056 803.652 45.056Q818.841 45.056 830.553 51.278Q842.265 57.5 848.8530000000001 69.12049999999999Q855.441 80.741 855.441 96.479Q855.441 100.688 854.892 104.89699999999999ZM818.841 87.512Q818.841 80.924 814.4490000000001 77.17250000000001Q810.057 73.421 803.469 73.421Q796.881 73.421 792.672 76.9895Q788.463 80.558 787.182 87.512Z M939.961 45.056Q952.222 45.056 962.1955 51.461Q972.169 57.866 977.9335 69.761Q983.698 81.656 983.698 97.577Q983.698 113.49799999999999 977.9335 125.4845Q972.169 137.471 962.1955 143.876Q952.222 150.281 939.961 150.281Q929.53 150.281 921.9355 146.072Q914.341 141.863 909.949 134.726V198.04399999999998H874.081V46.337H909.949V60.611000000000004Q914.158 53.474000000000004 921.844 49.265Q929.53 45.056 939.961 45.056ZM928.615 76.349Q920.746 76.349 915.3475 82.02199999999999Q909.949 87.695 909.949 97.577Q909.949 107.642 915.3475 113.315Q920.746 118.988 928.615 118.988Q936.4839999999999 118.988 941.8824999999999 113.2235Q947.281 107.459 947.281 97.577Q947.281 87.512 941.8824999999999 81.9305Q936.4839999999999 76.349 928.615 76.349Z" fill="#F7F7F9"/>
<path d="M1153.1299999999999 19.985000000000014V149.0H1117.262V77.813L1092.923 149.0H1062.9109999999998L1038.389 77.264V149.0H1002.521V19.985000000000014H1045.8919999999998L1078.283 103.799L1109.942 19.985000000000014Z M1215.5069999999998 45.056Q1226.1209999999999 45.056 1233.8069999999998 49.265Q1241.493 53.474000000000004 1245.702 60.611000000000004V46.337H1281.57V149.0H1245.702V134.726Q1241.493 141.863 1233.7154999999998 146.072Q1225.9379999999999 150.281 1215.5069999999998 150.281Q1203.2459999999999 150.281 1193.2725 143.876Q1183.299 137.471 1177.5345 125.4845Q1171.77 113.49799999999999 1171.77 97.577Q1171.77 81.656 1177.5345 69.761Q1183.299 57.866 1193.2725 51.461Q1203.2459999999999 45.056 1215.5069999999998 45.056ZM1227.0359999999998 76.349Q1218.984 76.349 1213.677 81.9305Q1208.37 87.512 1208.37 97.577Q1208.37 107.459 1213.677 113.2235Q1218.984 118.988 1227.0359999999998 118.988Q1234.905 118.988 1240.3035 113.315Q1245.702 107.642 1245.702 97.577Q1245.702 87.695 1240.3035 82.02199999999999Q1234.905 76.349 1227.0359999999998 76.349Z M1303.138 18.521000000000015Q1303.138 10.468999999999994 1308.9025 5.161999999999992Q1314.667 -0.14500000000001023 1324.183 -0.14500000000001023Q1333.516 -0.14500000000001023 1339.2805 5.161999999999992Q1345.045 10.468999999999994 1345.045 18.521000000000015Q1345.045 26.39 1339.2805 31.6055Q1333.516 36.821 1324.183 36.821Q1314.667 36.821 1308.9025 31.6055Q1303.138 26.39 1303.138 18.521000000000015ZM1341.934 46.337V149.0H1306.066V46.337Z M1402.298 13.580000000000013V149.0H1366.43V13.580000000000013Z" fill="url(#lkdmail)"/>

</g>
</svg>